<svg xmlns="http://www.w3.org/2000/svg" xmlns:xlink="http://www.w3.org/1999/xlink" width="800" zoomAndPan="magnify" viewBox="0 0 600 599.999999" height="800" preserveAspectRatio="xMidYMid meet" version="1.0"><defs><clipPath id="b546d23c0b"><path d="M 88.4375 42.480469 L 157.5625 42.480469 L 157.5625 111.609375 L 88.4375 111.609375 Z M 88.4375 42.480469 " clip-rule="nonzero"/></clipPath><clipPath id="a5e4f2ea55"><path d="M 123 42.480469 C 103.910156 42.480469 88.4375 57.957031 88.4375 77.046875 C 88.4375 96.132812 103.910156 111.609375 123 111.609375 C 142.089844 111.609375 157.5625 96.132812 157.5625 77.046875 C 157.5625 57.957031 142.089844 42.480469 123 42.480469 Z M 123 42.480469 " clip-rule="nonzero"/></clipPath><clipPath id="5aba8df9ee"><path d="M 0.4375 0.480469 L 69.5625 0.480469 L 69.5625 69.609375 L 0.4375 69.609375 Z M 0.4375 0.480469 " clip-rule="nonzero"/></clipPath><clipPath id="8b14aa9fd3"><path d="M 35 0.480469 C 15.910156 0.480469 0.4375 15.957031 0.4375 35.046875 C 0.4375 54.132812 15.910156 69.609375 35 69.609375 C 54.089844 69.609375 69.5625 54.132812 69.5625 35.046875 C 69.5625 15.957031 54.089844 0.480469 35 0.480469 Z M 35 0.480469 " clip-rule="nonzero"/></clipPath><clipPath id="388cf04fb1"><rect x="0" width="70" y="0" height="70"/></clipPath><clipPath id="5ef912a6ef"><path d="M 0.839844 0.390625 L 246 0.390625 L 246 84.585938 L 0.839844 84.585938 Z M 0.839844 0.390625 " clip-rule="nonzero"/></clipPath><clipPath id="2bee5410da"><rect x="0" width="248" y="0" height="112"/></clipPath></defs><rect x="-60" width="720" fill="#ffffff" y="-60" height="719.999999" fill-opacity="1"/><rect x="-60" width="720" fill="#ffffff" y="-60" height="719.999999" fill-opacity="1"/><g transform="matrix(1, 0, 0, 1, 177, 244)"><g clip-path="url(#2bee5410da)"><g clip-path="url(#b546d23c0b)"><g clip-path="url(#a5e4f2ea55)"><g transform="matrix(1, 0, 0, 1, 88, 42)"><g clip-path="url(#388cf04fb1)"><g clip-path="url(#5aba8df9ee)"><g clip-path="url(#8b14aa9fd3)"><path fill="#6b0f38" d="M 0.4375 0.480469 L 69.5625 0.480469 L 69.5625 69.609375 L 0.4375 69.609375 Z M 0.4375 0.480469 " fill-opacity="1" fill-rule="nonzero"/></g></g></g></g></g></g><g clip-path="url(#5ef912a6ef)"><path fill="#000000" d="M 245.09375 44.449219 C 244.964844 46.722656 241.855469 49.179688 240.46875 50.730469 C 237.082031 54.511719 233.695312 58.296875 230.308594 62.078125 C 227.441406 65.277344 224.578125 68.476562 221.714844 71.675781 C 222.0625 72.050781 222.441406 72.398438 222.78125 72.777344 C 222.820312 72.824219 222.828125 72.875 222.863281 72.921875 C 223.34375 73.355469 223.546875 74.015625 223.027344 74.699219 C 220.847656 77.554688 218.667969 80.410156 216.488281 83.269531 C 215.871094 84.074219 214.800781 84.371094 214 83.589844 C 209.121094 78.84375 203.148438 75.019531 197.332031 71.566406 C 184.101562 63.703125 169.617188 58.042969 154.691406 54.363281 C 135.066406 49.519531 114.335938 47.3125 94.410156 51.507812 C 76.878906 55.195312 60.125 62.25 44.34375 70.621094 C 36.773438 74.640625 29.246094 78.929688 22.203125 83.835938 C 21.273438 84.488281 20.234375 83.75 19.878906 82.890625 C 19.5625 82.136719 19.25 81.382812 18.9375 80.628906 C 18.90625 80.621094 18.875 80.597656 18.84375 80.585938 C 18.785156 80.558594 18.726562 80.539062 18.671875 80.5 C 18.554688 80.425781 18.449219 80.316406 18.351562 80.191406 C 18.332031 80.164062 18.308594 80.136719 18.292969 80.109375 C 18.242188 80.035156 18.175781 79.992188 18.132812 79.902344 C 17.421875 78.394531 16.710938 76.886719 16 75.378906 C 11.035156 64.875 6.070312 54.371094 1.105469 43.863281 C 0.644531 42.890625 1.03125 41.90625 2.050781 41.535156 C 5.996094 40.113281 9.941406 38.691406 13.886719 37.269531 C 14.503906 37.046875 15.398438 37.410156 15.679688 37.996094 C 16.398438 39.5 17.117188 41.003906 17.839844 42.507812 C 21.0625 49.238281 24.285156 55.96875 27.511719 62.699219 C 31.742188 60.105469 36.101562 57.714844 40.457031 55.464844 C 46.757812 52.210938 53.277344 49.289062 59.9375 46.691406 C 56.335938 36.644531 52.730469 26.597656 49.128906 16.550781 C 48.84375 15.753906 49.453125 14.800781 50.234375 14.601562 C 54.300781 13.566406 58.367188 12.535156 62.433594 11.5 C 63.320312 11.277344 64.082031 11.792969 64.382812 12.609375 C 64.960938 14.195312 65.539062 15.78125 66.117188 17.367188 C 69.050781 25.417969 71.984375 33.46875 74.917969 41.523438 C 86.519531 38.039062 98.449219 35.648438 110.46875 34.550781 C 110.757812 24.003906 111.042969 13.453125 111.332031 2.902344 C 111.355469 1.992188 112.042969 1.382812 112.914062 1.320312 C 117.097656 1.011719 121.28125 0.703125 125.464844 0.394531 C 126.308594 0.332031 127.066406 1.167969 127.050781 1.980469 C 127.011719 3.640625 126.976562 5.300781 126.941406 6.960938 C 126.742188 15.933594 126.546875 24.90625 126.347656 33.875 C 138.558594 33.960938 150.746094 35.425781 162.644531 38.585938 C 162.964844 38.671875 163.28125 38.773438 163.601562 38.863281 C 168.601562 28.96875 173.605469 19.078125 178.605469 9.1875 C 178.898438 8.609375 179.78125 8.226562 180.398438 8.460938 C 184.3125 9.96875 188.226562 11.476562 192.140625 12.980469 C 193.132812 13.363281 193.578125 14.328125 193.085938 15.308594 C 192.34375 16.800781 191.597656 18.292969 190.855469 19.785156 C 186.828125 27.84375 182.804688 35.90625 178.78125 43.96875 C 188.839844 48 198.441406 53.1875 207.246094 59.484375 C 208.40625 60.3125 209.5625 61.167969 210.71875 62.03125 C 217.722656 54.203125 224.730469 46.378906 231.734375 38.550781 C 232.09375 38.148438 232.765625 37.980469 233.277344 38.144531 C 235.507812 38.847656 237.738281 39.550781 239.96875 40.253906 C 242.140625 40.941406 245.261719 41.476562 245.09375 44.449219 Z M 245.09375 44.449219 " fill-opacity="1" fill-rule="nonzero"/></g></g></g></svg>